<svg xmlns="http://www.w3.org/2000/svg" width="880" height="360" viewBox="0 0 880 360" font-family="ui-monospace,SFMono-Regular,Menlo,monospace">
<rect width="880" height="360" fill="#0a0a0a"/>
<g fill="#262626"><circle cx="11" cy="131" r="1"/><circle cx="11" cy="161" r="1"/><circle cx="11" cy="221" r="1"/><circle cx="11" cy="311" r="1"/><circle cx="41" cy="41" r="1"/><circle cx="41" cy="71" r="1"/><circle cx="41" cy="161" r="1"/><circle cx="41" cy="221" r="1"/><circle cx="41" cy="311" r="1"/><circle cx="71" cy="11" r="1"/><circle cx="71" cy="161" r="1"/><circle cx="71" cy="281" r="1"/><circle cx="71" cy="341" r="1"/><circle cx="101" cy="191" r="1"/><circle cx="131" cy="11" r="1"/><circle cx="131" cy="191" r="1"/><circle cx="131" cy="281" r="1"/><circle cx="131" cy="341" r="1"/><circle cx="191" cy="131" r="1"/><circle cx="221" cy="71" r="1"/><circle cx="221" cy="101" r="1"/><circle cx="221" cy="341" r="1"/><circle cx="251" cy="41" r="1"/><circle cx="281" cy="11" r="1"/><circle cx="281" cy="41" r="1"/><circle cx="281" cy="191" r="1"/><circle cx="281" cy="221" r="1"/><circle cx="311" cy="251" r="1"/><circle cx="341" cy="41" r="1"/><circle cx="341" cy="101" r="1"/><circle cx="371" cy="11" r="1"/><circle cx="401" cy="161" r="1"/><circle cx="401" cy="341" r="1"/><circle cx="431" cy="161" r="1"/><circle cx="461" cy="251" r="1"/><circle cx="491" cy="131" r="1"/><circle cx="491" cy="251" r="1"/><circle cx="491" cy="311" r="1"/><circle cx="521" cy="71" r="1"/><circle cx="521" cy="161" r="1"/><circle cx="521" cy="191" r="1"/><circle cx="521" cy="221" r="1"/><circle cx="521" cy="341" r="1"/><circle cx="551" cy="71" r="1"/><circle cx="551" cy="101" r="1"/><circle cx="581" cy="71" r="1"/><circle cx="581" cy="101" r="1"/><circle cx="581" cy="281" r="1"/><circle cx="581" cy="341" r="1"/><circle cx="611" cy="251" r="1"/><circle cx="641" cy="101" r="1"/><circle cx="641" cy="221" r="1"/><circle cx="701" cy="251" r="1"/><circle cx="701" cy="281" r="1"/><circle cx="731" cy="281" r="1"/><circle cx="731" cy="341" r="1"/><circle cx="761" cy="251" r="1"/><circle cx="791" cy="41" r="1"/><circle cx="791" cy="101" r="1"/><circle cx="821" cy="11" r="1"/><circle cx="821" cy="191" r="1"/><circle cx="821" cy="341" r="1"/><animate attributeName="opacity" values="0.3;0.75;0.3" dur="3.4s" begin="0.00s" repeatCount="indefinite"/></g>
<g fill="#262626"><circle cx="11" cy="41" r="1"/><circle cx="41" cy="11" r="1"/><circle cx="41" cy="191" r="1"/><circle cx="71" cy="41" r="1"/><circle cx="71" cy="311" r="1"/><circle cx="101" cy="41" r="1"/><circle cx="101" cy="131" r="1"/><circle cx="101" cy="341" r="1"/><circle cx="131" cy="131" r="1"/><circle cx="161" cy="41" r="1"/><circle cx="191" cy="11" r="1"/><circle cx="191" cy="41" r="1"/><circle cx="191" cy="101" r="1"/><circle cx="221" cy="191" r="1"/><circle cx="221" cy="251" r="1"/><circle cx="311" cy="341" r="1"/><circle cx="341" cy="131" r="1"/><circle cx="341" cy="191" r="1"/><circle cx="341" cy="251" r="1"/><circle cx="371" cy="41" r="1"/><circle cx="371" cy="191" r="1"/><circle cx="401" cy="101" r="1"/><circle cx="401" cy="131" r="1"/><circle cx="401" cy="191" r="1"/><circle cx="401" cy="221" r="1"/><circle cx="401" cy="251" r="1"/><circle cx="401" cy="311" r="1"/><circle cx="431" cy="71" r="1"/><circle cx="431" cy="191" r="1"/><circle cx="461" cy="41" r="1"/><circle cx="491" cy="281" r="1"/><circle cx="491" cy="341" r="1"/><circle cx="521" cy="41" r="1"/><circle cx="521" cy="281" r="1"/><circle cx="551" cy="131" r="1"/><circle cx="551" cy="221" r="1"/><circle cx="581" cy="311" r="1"/><circle cx="611" cy="191" r="1"/><circle cx="611" cy="281" r="1"/><circle cx="641" cy="11" r="1"/><circle cx="671" cy="11" r="1"/><circle cx="671" cy="71" r="1"/><circle cx="671" cy="251" r="1"/><circle cx="671" cy="311" r="1"/><circle cx="671" cy="341" r="1"/><circle cx="701" cy="71" r="1"/><circle cx="701" cy="101" r="1"/><circle cx="731" cy="41" r="1"/><circle cx="731" cy="311" r="1"/><circle cx="761" cy="11" r="1"/><circle cx="761" cy="71" r="1"/><circle cx="761" cy="131" r="1"/><circle cx="791" cy="191" r="1"/><circle cx="791" cy="251" r="1"/><circle cx="821" cy="251" r="1"/><circle cx="821" cy="281" r="1"/><circle cx="821" cy="311" r="1"/><circle cx="851" cy="11" r="1"/><circle cx="851" cy="131" r="1"/><circle cx="851" cy="311" r="1"/><animate attributeName="opacity" values="0.3;0.75;0.3" dur="3.9s" begin="0.45s" repeatCount="indefinite"/></g>
<g fill="#262626"><circle cx="11" cy="11" r="1"/><circle cx="11" cy="251" r="1"/><circle cx="101" cy="71" r="1"/><circle cx="101" cy="251" r="1"/><circle cx="131" cy="161" r="1"/><circle cx="161" cy="191" r="1"/><circle cx="161" cy="311" r="1"/><circle cx="161" cy="341" r="1"/><circle cx="191" cy="191" r="1"/><circle cx="191" cy="281" r="1"/><circle cx="221" cy="11" r="1"/><circle cx="221" cy="221" r="1"/><circle cx="251" cy="131" r="1"/><circle cx="251" cy="161" r="1"/><circle cx="251" cy="221" r="1"/><circle cx="281" cy="71" r="1"/><circle cx="281" cy="311" r="1"/><circle cx="311" cy="101" r="1"/><circle cx="311" cy="221" r="1"/><circle cx="311" cy="311" r="1"/><circle cx="341" cy="161" r="1"/><circle cx="371" cy="161" r="1"/><circle cx="371" cy="281" r="1"/><circle cx="401" cy="11" r="1"/><circle cx="431" cy="101" r="1"/><circle cx="431" cy="131" r="1"/><circle cx="431" cy="281" r="1"/><circle cx="461" cy="11" r="1"/><circle cx="521" cy="101" r="1"/><circle cx="551" cy="11" r="1"/><circle cx="551" cy="281" r="1"/><circle cx="551" cy="311" r="1"/><circle cx="581" cy="11" r="1"/><circle cx="581" cy="251" r="1"/><circle cx="611" cy="41" r="1"/><circle cx="611" cy="101" r="1"/><circle cx="611" cy="341" r="1"/><circle cx="641" cy="161" r="1"/><circle cx="641" cy="281" r="1"/><circle cx="641" cy="341" r="1"/><circle cx="671" cy="41" r="1"/><circle cx="671" cy="191" r="1"/><circle cx="701" cy="191" r="1"/><circle cx="701" cy="311" r="1"/><circle cx="731" cy="11" r="1"/><circle cx="731" cy="131" r="1"/><circle cx="731" cy="221" r="1"/><circle cx="731" cy="251" r="1"/><circle cx="761" cy="101" r="1"/><circle cx="761" cy="341" r="1"/><circle cx="791" cy="341" r="1"/><circle cx="851" cy="281" r="1"/><animate attributeName="opacity" values="0.3;0.75;0.3" dur="4.4s" begin="0.90s" repeatCount="indefinite"/></g>
<g fill="#262626"><circle cx="11" cy="71" r="1"/><circle cx="41" cy="101" r="1"/><circle cx="41" cy="131" r="1"/><circle cx="41" cy="281" r="1"/><circle cx="71" cy="251" r="1"/><circle cx="101" cy="101" r="1"/><circle cx="161" cy="71" r="1"/><circle cx="161" cy="161" r="1"/><circle cx="161" cy="221" r="1"/><circle cx="161" cy="281" r="1"/><circle cx="191" cy="251" r="1"/><circle cx="191" cy="341" r="1"/><circle cx="221" cy="161" r="1"/><circle cx="221" cy="281" r="1"/><circle cx="221" cy="311" r="1"/><circle cx="251" cy="281" r="1"/><circle cx="251" cy="341" r="1"/><circle cx="281" cy="101" r="1"/><circle cx="311" cy="71" r="1"/><circle cx="311" cy="161" r="1"/><circle cx="311" cy="281" r="1"/><circle cx="341" cy="71" r="1"/><circle cx="341" cy="281" r="1"/><circle cx="341" cy="311" r="1"/><circle cx="341" cy="341" r="1"/><circle cx="371" cy="71" r="1"/><circle cx="371" cy="101" r="1"/><circle cx="371" cy="221" r="1"/><circle cx="371" cy="341" r="1"/><circle cx="401" cy="71" r="1"/><circle cx="431" cy="11" r="1"/><circle cx="431" cy="221" r="1"/><circle cx="461" cy="281" r="1"/><circle cx="491" cy="11" r="1"/><circle cx="491" cy="41" r="1"/><circle cx="491" cy="71" r="1"/><circle cx="491" cy="101" r="1"/><circle cx="491" cy="161" r="1"/><circle cx="491" cy="221" r="1"/><circle cx="521" cy="11" r="1"/><circle cx="551" cy="191" r="1"/><circle cx="581" cy="41" r="1"/><circle cx="581" cy="131" r="1"/><circle cx="581" cy="161" r="1"/><circle cx="581" cy="191" r="1"/><circle cx="581" cy="221" r="1"/><circle cx="611" cy="131" r="1"/><circle cx="701" cy="11" r="1"/><circle cx="701" cy="161" r="1"/><circle cx="701" cy="341" r="1"/><circle cx="731" cy="161" r="1"/><circle cx="761" cy="41" r="1"/><circle cx="761" cy="161" r="1"/><circle cx="761" cy="281" r="1"/><circle cx="791" cy="131" r="1"/><circle cx="791" cy="221" r="1"/><circle cx="791" cy="281" r="1"/><circle cx="821" cy="71" r="1"/><circle cx="821" cy="101" r="1"/><circle cx="821" cy="131" r="1"/><circle cx="851" cy="71" r="1"/><circle cx="851" cy="221" r="1"/><animate attributeName="opacity" values="0.3;0.75;0.3" dur="4.9s" begin="1.35s" repeatCount="indefinite"/></g>
<g fill="#262626"><circle cx="11" cy="191" r="1"/><circle cx="11" cy="281" r="1"/><circle cx="11" cy="341" r="1"/><circle cx="41" cy="251" r="1"/><circle cx="41" cy="341" r="1"/><circle cx="71" cy="131" r="1"/><circle cx="71" cy="191" r="1"/><circle cx="71" cy="221" r="1"/><circle cx="101" cy="11" r="1"/><circle cx="101" cy="161" r="1"/><circle cx="101" cy="221" r="1"/><circle cx="101" cy="281" r="1"/><circle cx="131" cy="41" r="1"/><circle cx="131" cy="71" r="1"/><circle cx="131" cy="221" r="1"/><circle cx="131" cy="311" r="1"/><circle cx="161" cy="11" r="1"/><circle cx="161" cy="131" r="1"/><circle cx="161" cy="251" r="1"/><circle cx="191" cy="161" r="1"/><circle cx="191" cy="221" r="1"/><circle cx="221" cy="41" r="1"/><circle cx="221" cy="131" r="1"/><circle cx="251" cy="71" r="1"/><circle cx="251" cy="101" r="1"/><circle cx="251" cy="251" r="1"/><circle cx="251" cy="311" r="1"/><circle cx="311" cy="11" r="1"/><circle cx="341" cy="11" r="1"/><circle cx="371" cy="131" r="1"/><circle cx="371" cy="251" r="1"/><circle cx="431" cy="41" r="1"/><circle cx="431" cy="251" r="1"/><circle cx="431" cy="311" r="1"/><circle cx="431" cy="341" r="1"/><circle cx="461" cy="101" r="1"/><circle cx="461" cy="131" r="1"/><circle cx="461" cy="341" r="1"/><circle cx="521" cy="131" r="1"/><circle cx="521" cy="251" r="1"/><circle cx="521" cy="311" r="1"/><circle cx="551" cy="41" r="1"/><circle cx="551" cy="161" r="1"/><circle cx="551" cy="341" r="1"/><circle cx="611" cy="221" r="1"/><circle cx="611" cy="311" r="1"/><circle cx="641" cy="71" r="1"/><circle cx="641" cy="131" r="1"/><circle cx="641" cy="311" r="1"/><circle cx="671" cy="101" r="1"/><circle cx="671" cy="131" r="1"/><circle cx="671" cy="161" r="1"/><circle cx="671" cy="281" r="1"/><circle cx="701" cy="131" r="1"/><circle cx="731" cy="101" r="1"/><circle cx="761" cy="191" r="1"/><circle cx="761" cy="221" r="1"/><circle cx="851" cy="41" r="1"/><circle cx="851" cy="161" r="1"/><circle cx="851" cy="191" r="1"/><circle cx="851" cy="341" r="1"/><animate attributeName="opacity" values="0.3;0.75;0.3" dur="5.4s" begin="1.80s" repeatCount="indefinite"/></g>
<g fill="#262626"><circle cx="11" cy="101" r="1"/><circle cx="71" cy="71" r="1"/><circle cx="71" cy="101" r="1"/><circle cx="101" cy="311" r="1"/><circle cx="131" cy="101" r="1"/><circle cx="131" cy="251" r="1"/><circle cx="161" cy="101" r="1"/><circle cx="191" cy="71" r="1"/><circle cx="191" cy="311" r="1"/><circle cx="251" cy="11" r="1"/><circle cx="251" cy="191" r="1"/><circle cx="281" cy="131" r="1"/><circle cx="281" cy="161" r="1"/><circle cx="281" cy="251" r="1"/><circle cx="281" cy="281" r="1"/><circle cx="281" cy="341" r="1"/><circle cx="311" cy="41" r="1"/><circle cx="311" cy="131" r="1"/><circle cx="311" cy="191" r="1"/><circle cx="341" cy="221" r="1"/><circle cx="371" cy="311" r="1"/><circle cx="401" cy="41" r="1"/><circle cx="401" cy="281" r="1"/><circle cx="461" cy="71" r="1"/><circle cx="461" cy="161" r="1"/><circle cx="461" cy="191" r="1"/><circle cx="461" cy="221" r="1"/><circle cx="461" cy="311" r="1"/><circle cx="491" cy="191" r="1"/><circle cx="551" cy="251" r="1"/><circle cx="611" cy="11" r="1"/><circle cx="611" cy="71" r="1"/><circle cx="611" cy="161" r="1"/><circle cx="641" cy="41" r="1"/><circle cx="641" cy="191" r="1"/><circle cx="641" cy="251" r="1"/><circle cx="671" cy="221" r="1"/><circle cx="701" cy="41" r="1"/><circle cx="701" cy="221" r="1"/><circle cx="731" cy="71" r="1"/><circle cx="731" cy="191" r="1"/><circle cx="761" cy="311" r="1"/><circle cx="791" cy="11" r="1"/><circle cx="791" cy="71" r="1"/><circle cx="791" cy="161" r="1"/><circle cx="791" cy="311" r="1"/><circle cx="821" cy="41" r="1"/><circle cx="821" cy="161" r="1"/><circle cx="821" cy="221" r="1"/><circle cx="851" cy="101" r="1"/><circle cx="851" cy="251" r="1"/><animate attributeName="opacity" values="0.3;0.75;0.3" dur="5.9s" begin="2.25s" repeatCount="indefinite"/></g>
<clipPath id="bootclip"><rect x="0" y="0" width="0" height="360"><animate attributeName="width" values="0;880" dur="2.4s" begin="0.2s" fill="freeze" calcMode="spline" keySplines="0.16 1 0.3 1"/></rect></clipPath>
<text x="40" y="56" fill="#8a8a8a" font-size="13" letter-spacing="1.5" clip-path="url(#bootclip)">/ system.boot --user sharann --mode brutalist --status online</text>
<rect x="40" y="46" width="8" height="14" fill="#fafafa"><animate attributeName="x" values="40;505" dur="2.4s" begin="0.2s" fill="freeze" calcMode="spline" keySplines="0.16 1 0.3 1"/><animate attributeName="opacity" values="1;0;1" dur="1s" begin="2.6s" repeatCount="indefinite"/></rect>
<text x="40" y="180" fill="none" stroke="#fafafa" stroke-width="1.2" font-size="120" font-weight="700" letter-spacing="-4" stroke-dasharray="1400" stroke-dashoffset="1400">SHARANN<animate attributeName="stroke-dashoffset" values="1400;0" dur="2.2s" begin="0.6s" fill="freeze" calcMode="spline" keySplines="0.22 1 0.36 1"/><animate attributeName="fill" values="#0a0a0a;#fafafa" dur="0.8s" begin="2.6s" fill="freeze"/></text>
<text x="42" y="214" fill="#8a8a8a" font-size="13" letter-spacing="2" opacity="0">builds developer tools · terminal-native AI · production from line one<animate attributeName="opacity" values="0;1" dur="0.9s" begin="3.0s" fill="freeze"/></text>
<line x1="40" y1="236" x2="40" y2="236" stroke="#fafafa" stroke-width="2"><animate attributeName="x2" values="40;840" dur="1.2s" begin="3.1s" fill="freeze" calcMode="spline" keySplines="0.16 1 0.3 1"/></line>
<g>
<text x="40" y="284" fill="#8a8a8a" font-size="12" letter-spacing="1" opacity="0">arbor   //   terminaltype   //   notionwidgets   //   planner   //   student-dashboard   //   landroid   //   cosmos   //   lobe   //   kern   //   looboo   //   fios   //   treegpt   //   amoeba   //   arbor   //   terminaltype   //   notionwidgets   //   planner   //   student-dashboard   //   landroid   //   cosmos   //   lobe   //   kern   //   looboo   //   fios   //   treegpt   //   amoeba<animate attributeName="opacity" values="0;0.85" dur="0.8s" begin="3.4s" fill="freeze"/><animateTransform attributeName="transform" type="translate" from="0 0" to="-740 0" dur="22s" begin="3.4s" repeatCount="indefinite"/></text>
</g>
<rect x="670" y="66" width="6" height="22" fill="#fafafa" opacity="0"><animate attributeName="opacity" values="0;0.85" dur="0.4s" begin="3.50s" fill="freeze"/><animate attributeName="height" values="22;27;19;22" dur="2.27s" begin="3.60s" repeatCount="indefinite"/><animate attributeName="y" values="66;61;69;66" dur="1.52s" begin="3.60s" repeatCount="indefinite"/></rect>
<rect x="682" y="61" width="6" height="27" fill="#fafafa" opacity="0"><animate attributeName="opacity" values="0;0.85" dur="0.4s" begin="3.54s" fill="freeze"/><animate attributeName="height" values="27;31;22;27" dur="1.63s" begin="3.64s" repeatCount="indefinite"/><animate attributeName="y" values="61;57;66;61" dur="2.45s" begin="3.64s" repeatCount="indefinite"/></rect>
<rect x="694" y="79" width="6" height="9" fill="#fafafa" opacity="0"><animate attributeName="opacity" values="0;0.85" dur="0.4s" begin="3.58s" fill="freeze"/><animate attributeName="height" values="9;33;14;9" dur="2.32s" begin="3.68s" repeatCount="indefinite"/><animate attributeName="y" values="79;55;74;79" dur="1.79s" begin="3.68s" repeatCount="indefinite"/></rect>
<rect x="706" y="66" width="6" height="22" fill="#fafafa" opacity="0"><animate attributeName="opacity" values="0;0.85" dur="0.4s" begin="3.62s" fill="freeze"/><animate attributeName="height" values="22;54;7;22" dur="2.29s" begin="3.72s" repeatCount="indefinite"/><animate attributeName="y" values="66;34;81;66" dur="2.48s" begin="3.72s" repeatCount="indefinite"/></rect>
<rect x="718" y="63" width="6" height="25" fill="#fafafa" opacity="0"><animate attributeName="opacity" values="0;0.85" dur="0.4s" begin="3.66s" fill="freeze"/><animate attributeName="height" values="25;54;14;25" dur="2.39s" begin="3.76s" repeatCount="indefinite"/><animate attributeName="y" values="63;34;74;63" dur="2.45s" begin="3.76s" repeatCount="indefinite"/></rect>
<rect x="730" y="77" width="6" height="11" fill="#fafafa" opacity="0"><animate attributeName="opacity" values="0;0.85" dur="0.4s" begin="3.70s" fill="freeze"/><animate attributeName="height" values="11;31;14;11" dur="2.45s" begin="3.80s" repeatCount="indefinite"/><animate attributeName="y" values="77;57;74;77" dur="2.33s" begin="3.80s" repeatCount="indefinite"/></rect>
<rect x="742" y="64" width="6" height="24" fill="#fafafa" opacity="0"><animate attributeName="opacity" values="0;0.85" dur="0.4s" begin="3.74s" fill="freeze"/><animate attributeName="height" values="24;52;8;24" dur="1.57s" begin="3.84s" repeatCount="indefinite"/><animate attributeName="y" values="64;36;80;64" dur="2.14s" begin="3.84s" repeatCount="indefinite"/></rect>
<rect x="754" y="77" width="6" height="11" fill="#fafafa" opacity="0"><animate attributeName="opacity" values="0;0.85" dur="0.4s" begin="3.78s" fill="freeze"/><animate attributeName="height" values="11;28;17;11" dur="2.04s" begin="3.88s" repeatCount="indefinite"/><animate attributeName="y" values="77;60;71;77" dur="1.98s" begin="3.88s" repeatCount="indefinite"/></rect>
<rect x="766" y="60" width="6" height="28" fill="#fafafa" opacity="0"><animate attributeName="opacity" values="0;0.85" dur="0.4s" begin="3.82s" fill="freeze"/><animate attributeName="height" values="28;56;7;28" dur="1.63s" begin="3.92s" repeatCount="indefinite"/><animate attributeName="y" values="60;32;81;60" dur="1.45s" begin="3.92s" repeatCount="indefinite"/></rect>
<rect x="778" y="77" width="6" height="11" fill="#fafafa" opacity="0"><animate attributeName="opacity" values="0;0.85" dur="0.4s" begin="3.86s" fill="freeze"/><animate attributeName="height" values="11;41;6;11" dur="2.47s" begin="3.96s" repeatCount="indefinite"/><animate attributeName="y" values="77;47;82;77" dur="1.48s" begin="3.96s" repeatCount="indefinite"/></rect>
<rect x="790" y="72" width="6" height="16" fill="#fafafa" opacity="0"><animate attributeName="opacity" values="0;0.85" dur="0.4s" begin="3.90s" fill="freeze"/><animate attributeName="height" values="16;59;16;16" dur="1.64s" begin="4.00s" repeatCount="indefinite"/><animate attributeName="y" values="72;29;72;72" dur="1.73s" begin="4.00s" repeatCount="indefinite"/></rect>
<rect x="802" y="67" width="6" height="21" fill="#fafafa" opacity="0"><animate attributeName="opacity" values="0;0.85" dur="0.4s" begin="3.94s" fill="freeze"/><animate attributeName="height" values="21;53;14;21" dur="1.70s" begin="4.04s" repeatCount="indefinite"/><animate attributeName="y" values="67;35;74;67" dur="2.03s" begin="4.04s" repeatCount="indefinite"/></rect>
<rect x="814" y="57" width="6" height="31" fill="#fafafa" opacity="0"><animate attributeName="opacity" values="0;0.85" dur="0.4s" begin="3.98s" fill="freeze"/><animate attributeName="height" values="31;58;21;31" dur="2.47s" begin="4.08s" repeatCount="indefinite"/><animate attributeName="y" values="57;30;67;57" dur="1.64s" begin="4.08s" repeatCount="indefinite"/></rect>
<rect x="826" y="68" width="6" height="20" fill="#fafafa" opacity="0"><animate attributeName="opacity" values="0;0.85" dur="0.4s" begin="4.02s" fill="freeze"/><animate attributeName="height" values="20;40;12;20" dur="1.78s" begin="4.12s" repeatCount="indefinite"/><animate attributeName="y" values="68;48;76;68" dur="2.21s" begin="4.12s" repeatCount="indefinite"/></rect>
<path d="M18 38 L18 18 L38 18" stroke="#fafafa" stroke-width="2" fill="none" opacity="0"><animate attributeName="opacity" values="0;1" dur="0.6s" begin="3.0s" fill="freeze"/></path>
<path d="M862 38 L862 18 L842 18" stroke="#fafafa" stroke-width="2" fill="none" opacity="0"><animate attributeName="opacity" values="0;1" dur="0.6s" begin="3.0s" fill="freeze"/></path>
<path d="M18 322 L18 342 L38 342" stroke="#fafafa" stroke-width="2" fill="none" opacity="0"><animate attributeName="opacity" values="0;1" dur="0.6s" begin="3.0s" fill="freeze"/></path>
<path d="M862 322 L862 342 L842 342" stroke="#fafafa" stroke-width="2" fill="none" opacity="0"><animate attributeName="opacity" values="0;1" dur="0.6s" begin="3.0s" fill="freeze"/></path>
<circle cx="836" cy="51" r="5" fill="#fafafa"><animate attributeName="opacity" values="0;1" dur="0.4s" begin="2.6s" fill="freeze"/><animate attributeName="r" values="5;7;5" dur="1.8s" begin="3s" repeatCount="indefinite"/></circle>
<text x="822" y="55" fill="#8a8a8a" font-size="11" text-anchor="end" opacity="0">ONLINE<animate attributeName="opacity" values="0;1" dur="0.4s" begin="2.7s" fill="freeze"/></text>
</svg>
